<svg xmlns="http://www.w3.org/2000/svg" xmlns:xlink="http://www.w3.org/1999/xlink" width="500" zoomAndPan="magnify" viewBox="0 0 375 374.999991" height="500" preserveAspectRatio="xMidYMid meet" version="1.0"><defs><clipPath id="cb11f47df1"><path d="M 1 43.59375 L 375 43.59375 L 375 331 L 1 331 Z M 1 43.59375 " clip-rule="nonzero"/></clipPath></defs><g clip-path="url(#cb11f47df1)"><path fill="#b1955f" d="M 56.554688 328.878906 C 54.277344 325.191406 57.40625 316.527344 61.695312 314.644531 C 66.476562 312.546875 68.300781 303.761719 64.824219 299.574219 C 63.59375 298.085938 60.726562 296.871094 58.453125 296.871094 C 56.183594 296.871094 52.277344 294.695312 49.777344 292.03125 C 45.328125 287.289062 45.308594 287.136719 48.875 284.527344 C 50.875 283.0625 53.617188 281.867188 54.964844 281.867188 C 58.703125 281.867188 57.949219 280.191406 51.917969 275.117188 C 46.492188 270.546875 46.460938 270.410156 49.574219 264.953125 C 53.425781 258.210938 51.089844 253.085938 43.757812 252.207031 C 40.09375 251.765625 38.273438 252.839844 36.300781 256.613281 L 33.6875 261.601562 L 28.210938 256.878906 L 22.738281 252.15625 L 26.6875 246.84375 C 31.789062 239.980469 36.074219 239.261719 41.496094 244.359375 C 44.804688 247.46875 46.65625 248.015625 49.15625 246.613281 C 54.023438 243.890625 62.832031 247.542969 64.160156 252.839844 C 65.695312 258.953125 63.527344 264.574219 59.101562 265.980469 C 56.105469 266.933594 55.792969 267.710938 57.550781 269.828125 C 58.761719 271.289062 61.699219 272.484375 64.078125 272.484375 C 73.277344 272.484375 77.929688 260.652344 70.542969 256.039062 C 63.054688 251.359375 66.75 239.921875 75.433594 240.914062 C 79.796875 241.414062 80.972656 242.558594 81.457031 246.804688 C 81.789062 249.703125 81.039062 253.308594 79.792969 254.8125 C 76.144531 259.214844 82.664062 264.980469 91.289062 264.980469 C 96.875 264.980469 99.347656 263.769531 103.261719 259.117188 C 108.710938 252.636719 108.492188 250.46875 102.695312 253.574219 C 95.519531 257.417969 89.613281 256.042969 86.375 249.773438 C 82.597656 242.464844 84.046875 236.25 90.183594 233.453125 C 93.300781 232.03125 94.914062 229.78125 94.914062 226.855469 C 94.914062 216.324219 110.863281 212.070312 116.734375 221.035156 C 118.753906 224.117188 121.097656 225.550781 123.21875 224.996094 C 129.539062 223.34375 134.28125 228.824219 134.28125 237.78125 C 134.28125 246.621094 129.84375 251.785156 122.148438 251.914062 C 118.535156 251.972656 118.566406 252.15625 122.773438 255.664062 C 128.902344 260.777344 133.640625 260.285156 140.050781 253.871094 C 146.441406 247.476562 147.089844 240.714844 141.78125 235.90625 C 137.054688 231.625 137.007812 227.097656 141.648438 222.894531 C 149.496094 215.785156 159.222656 227.082031 152.066406 234.996094 C 145.507812 242.246094 156.234375 255.601562 168.617188 255.601562 C 174.519531 255.601562 183.023438 248.839844 183.023438 244.144531 C 183.023438 241.085938 182.410156 240.792969 179.398438 242.40625 C 168.386719 248.300781 158.652344 242.039062 158.652344 229.054688 C 158.652344 221.472656 162.082031 216.832031 168.964844 215.101562 C 172.402344 214.238281 173.355469 212.769531 173.234375 208.527344 C 173 200.253906 178.335938 195.574219 188 195.574219 C 197.78125 195.574219 203.644531 200.449219 203.644531 208.578125 C 203.644531 212.652344 204.742188 214.414062 207.863281 215.367188 C 214.621094 217.425781 218.644531 222.015625 218.644531 227.667969 C 218.644531 240.453125 210.429688 247.023438 199.574219 242.921875 C 190.207031 239.386719 190.605469 247.980469 200.03125 252.859375 C 210.46875 258.261719 219.6875 255.023438 225.410156 243.949219 C 228.160156 238.632812 228.15625 238.007812 225.398438 236.464844 C 221.875 234.492188 221.394531 225.460938 224.640625 222.210938 C 228.207031 218.640625 233.304688 219.582031 236.453125 224.386719 C 239.703125 229.351562 238.601562 234.1875 233.609375 236.859375 C 230.828125 238.347656 230.535156 239.832031 231.863281 245.71875 C 234.691406 258.28125 245.628906 263.082031 254.523438 255.664062 L 258.949219 251.976562 L 254.152344 251.914062 C 247.089844 251.820312 243.070312 248.027344 241.8125 240.257812 C 240.878906 234.515625 241.492188 232.566406 245.5 228.558594 C 248.40625 225.652344 251.46875 224.199219 253.25 224.882812 C 255.109375 225.59375 257.621094 224.203125 260.054688 221.109375 C 266.429688 213 282.382812 216.40625 282.382812 225.878906 C 282.382812 227.988281 284.828125 231.996094 287.816406 234.789062 C 291.945312 238.648438 293.023438 241.054688 292.304688 244.808594 C 290.441406 254.574219 283.441406 257.414062 272.539062 252.828125 C 267.871094 250.863281 268.484375 254.21875 273.855469 260.019531 C 277.324219 263.761719 280.261719 264.980469 285.8125 264.980469 C 295.457031 264.980469 298.660156 261.347656 295.574219 253.898438 C 292.703125 246.960938 295.664062 240.59375 301.757812 240.59375 C 310.507812 240.59375 313.316406 249.035156 306.753906 255.601562 C 296.917969 265.445312 307.953125 278.128906 319.050781 269.730469 C 322.300781 267.269531 322.34375 266.972656 319.449219 266.917969 C 317.671875 266.886719 314.808594 264.714844 313.09375 262.089844 C 307.296875 253.242188 316.726562 242.578125 326.941406 246.429688 C 330.144531 247.636719 332.105469 247.117188 334.90625 244.3125 C 339.40625 239.8125 342.078125 239.660156 347.6875 243.589844 C 353.050781 247.347656 352.519531 254.984375 346.621094 258.878906 C 342.710938 261.464844 342.316406 261.324219 340.578125 256.746094 C 339.15625 253.011719 337.417969 251.851562 333.246094 251.851562 C 325.453125 251.851562 322.644531 260.589844 328.390625 266.945312 C 331.03125 269.863281 330.785156 270.5625 325.578125 274.945312 C 319.355469 280.1875 318.566406 281.867188 322.328125 281.867188 C 323.679688 281.867188 326.414062 283.058594 328.40625 284.515625 C 331.921875 287.085938 331.875 287.304688 326.792969 292.019531 C 323.914062 294.6875 319.933594 296.871094 317.949219 296.871094 C 315.960938 296.871094 312.957031 298.984375 311.269531 301.5625 C 308.421875 305.90625 308.421875 306.597656 311.269531 310.941406 C 312.957031 313.519531 315.058594 315.632812 315.941406 315.632812 C 316.824219 315.632812 318.613281 318.210938 319.917969 321.363281 C 323.78125 330.695312 320.554688 331.609375 303.171875 326.113281 C 241.542969 306.632812 142.929688 305.917969 79.917969 324.492188 C 71.152344 327.078125 62.601562 329.589844 60.914062 330.078125 C 59.222656 330.566406 57.261719 330.03125 56.554688 328.882812 Z M 80.617188 315.640625 C 115.445312 308 134.894531 305.847656 177.398438 304.9375 C 228.71875 303.839844 265.617188 307.707031 308.628906 318.695312 C 311.867188 319.523438 312.734375 319.285156 311.441406 317.929688 C 309.039062 315.414062 280.324219 309.273438 251.449219 305.105469 C 223.179688 301.023438 160.394531 300.492188 132.40625 304.101562 C 121.582031 305.496094 102.601562 308.660156 90.230469 311.132812 C 77.859375 313.609375 67.101562 315.632812 66.328125 315.632812 C 65.550781 315.632812 64.917969 316.53125 64.917969 317.632812 C 64.917969 318.734375 66.394531 319.1875 68.199219 318.640625 C 70.003906 318.09375 75.59375 316.742188 80.617188 315.640625 Z M 126.824219 295.683594 C 130.925781 292.96875 134.28125 290.097656 134.28125 289.308594 C 134.28125 288.515625 130.09375 286.863281 124.976562 285.632812 C 116.0625 283.492188 115.355469 283.625 108.144531 288.730469 C 104.003906 291.660156 100.601562 294.542969 100.578125 295.136719 C 100.539062 296.179688 112.1875 299.910156 116.980469 300.386719 C 118.292969 300.519531 122.722656 298.402344 126.824219 295.683594 Z M 272.933594 296.53125 C 277.480469 294.816406 277.421875 294.710938 268.925781 289.179688 C 260.421875 283.644531 260.167969 283.601562 250.253906 286.117188 L 240.203125 288.664062 L 248.542969 294.710938 C 257.167969 300.964844 260.523438 301.214844 272.933594 296.53125 Z M 201.894531 294.929688 C 206.003906 292.730469 206.835938 283.929688 203.269531 280.363281 C 201.964844 279.058594 195.710938 278.113281 188.378906 278.113281 C 177.441406 278.113281 175.34375 278.675781 172.820312 282.28125 C 169.0625 287.648438 169.136719 288.605469 173.652344 293.121094 C 176.5 295.972656 179.898438 296.871094 187.835938 296.871094 C 193.574219 296.871094 199.898438 296 201.894531 294.929688 Z M 73.980469 287.589844 C 107.425781 279.082031 140.292969 275.597656 187.710938 275.535156 C 239.886719 275.464844 265.445312 278.441406 315.191406 290.378906 C 319.101562 291.320312 320.242188 291.128906 318.9375 289.753906 C 316.691406 287.386719 278.558594 279.296875 255.757812 276.351562 C 209.519531 270.382812 161.03125 270.695312 114.597656 277.261719 C 90.738281 280.636719 61.039062 287.152344 58.449219 289.574219 C 55.921875 291.945312 57.792969 291.707031 73.980469 287.589844 Z M 84.601562 274.363281 C 85.238281 273.328125 84.023438 272.484375 81.902344 272.484375 C 79.777344 272.484375 78.042969 273.328125 78.042969 274.363281 C 78.042969 275.394531 79.257812 276.238281 80.742188 276.238281 C 82.230469 276.238281 83.964844 275.394531 84.601562 274.363281 Z M 298.316406 274.363281 C 297.679688 273.328125 295.941406 272.484375 294.457031 272.484375 C 292.972656 272.484375 291.757812 273.328125 291.757812 274.363281 C 291.757812 275.394531 293.492188 276.238281 295.617188 276.238281 C 297.738281 276.238281 298.953125 275.394531 298.316406 274.363281 Z M 118.480469 269.574219 C 127.976562 268.386719 128.871094 267.957031 124.90625 266.488281 C 122.371094 265.550781 118.800781 263.425781 116.96875 261.769531 C 115.136719 260.109375 113.433594 259.101562 113.179688 259.53125 C 112.929688 259.960938 110.191406 263.179688 107.097656 266.6875 C 103.867188 270.351562 102.746094 272.617188 104.460938 272.007812 C 106.105469 271.429688 112.414062 270.332031 118.480469 269.574219 Z M 269.097656 266.300781 L 263.21875 260.117188 L 255.390625 263.957031 L 247.566406 267.796875 L 259.820312 269.917969 C 266.558594 271.085938 272.726562 272.140625 273.527344 272.261719 C 274.324219 272.386719 272.335938 269.703125 269.097656 266.300781 Z M 184.707031 264.898438 C 207.421875 264.820312 208.042969 264.714844 200.859375 262.152344 C 196.746094 260.691406 192.359375 258.085938 191.101562 256.371094 C 189.023438 253.519531 188.308594 253.679688 182.96875 258.175781 C 176.074219 263.980469 163.738281 264.863281 154.722656 260.199219 C 149.339844 257.414062 148.855469 257.503906 143.101562 262.375 L 137.09375 267.457031 L 149.085938 266.21875 C 155.679688 265.539062 171.710938 264.945312 184.707031 264.898438 Z M 232.847656 262.144531 C 226.472656 257.816406 225.574219 257.664062 221.855469 260.269531 C 219.628906 261.828125 215.675781 263.234375 213.070312 263.386719 C 207.3125 263.730469 222.238281 266.179688 232.496094 266.578125 L 239.789062 266.859375 Z M 117.035156 245.847656 C 120.113281 242.765625 119.863281 235.910156 116.574219 233.175781 C 112.632812 229.902344 105.863281 231.527344 104.164062 236.15625 C 101.242188 244.113281 111.246094 251.640625 117.035156 245.847656 Z M 270.757812 245.847656 C 273.839844 242.765625 273.589844 235.910156 270.300781 233.175781 C 266.355469 229.902344 259.585938 231.527344 257.886719 236.15625 C 254.96875 244.113281 264.96875 251.640625 270.757812 245.847656 Z M 196.976562 234.550781 C 198.582031 232.257812 199.894531 228.84375 199.894531 226.960938 C 199.894531 222.792969 191.789062 214.332031 187.796875 214.332031 C 183.226562 214.332031 177.398438 221.347656 177.398438 226.847656 C 177.398438 237.769531 190.984375 243.113281 196.976562 234.550781 Z M 22.199219 240.242188 C 19.125 237.164062 19.339844 234.039062 22.832031 231.136719 C 26.988281 227.683594 33 233.527344 30.070312 238.175781 C 27.4375 242.351562 24.957031 243.003906 22.199219 240.242188 Z M 42.421875 239.65625 C 41.136719 238.109375 39.023438 236.84375 37.722656 236.84375 C 36.417969 236.84375 33.972656 234.734375 32.285156 232.152344 C 30.390625 229.261719 27.449219 227.464844 24.617188 227.464844 C 18.738281 227.464844 13.886719 218.757812 15.4375 211 C 16.28125 206.769531 15.429688 204.339844 11.667969 200.277344 C 6.074219 194.238281 4.742188 182.441406 9.65625 182.441406 C 11.222656 182.441406 13.453125 180.367188 14.609375 177.828125 C 16.265625 174.1875 16.105469 172.292969 13.84375 168.839844 C 9.730469 162.558594 14.070312 154.304688 21.484375 154.304688 C 28.078125 154.304688 31.175781 151.199219 31.175781 144.59375 C 31.175781 137.628906 39.226562 131.941406 44.457031 135.207031 C 50.214844 138.808594 55.4375 137.835938 57.761719 132.730469 C 59.671875 128.535156 61.011719 128.039062 70.46875 128.039062 L 81.039062 128.039062 L 80.28125 134.519531 C 79.5625 140.671875 79.082031 141.058594 70.816406 142.136719 C 59.652344 143.597656 47.664062 147.898438 41.710938 152.585938 C 39.136719 154.613281 34.757812 160.917969 31.980469 166.597656 C 22.726562 185.523438 27.472656 207.320312 45.933594 230.691406 C 51.96875 238.332031 52.914062 240.484375 50.617188 241.367188 C 46.308594 243.019531 44.984375 242.746094 42.421875 239.65625 Z M 326.136719 241.027344 C 324.660156 240.085938 326.695312 236.035156 332.480469 228.394531 C 354.082031 199.878906 355.390625 172.5625 336.019531 154.695312 C 327.589844 146.921875 320.992188 144.136719 306.285156 142.148438 C 299.289062 141.199219 297.378906 140.195312 297.378906 137.457031 C 297.378906 135.542969 296.867188 132.640625 296.242188 131.007812 C 295.28125 128.5 296.882812 128.039062 306.554688 128.039062 C 315.027344 128.039062 318 128.710938 318 130.625 C 318 136.054688 323.375 138.265625 330.402344 135.722656 C 335.984375 133.703125 337.617188 133.804688 341.621094 136.429688 C 344.917969 138.59375 345.972656 140.566406 345.175781 143.082031 C 344.550781 145.046875 345.003906 148.464844 346.183594 150.667969 C 347.832031 153.746094 349.625 154.488281 353.898438 153.863281 C 358.589844 153.171875 359.929688 153.941406 362.398438 158.71875 C 364.652344 163.074219 364.84375 165.171875 363.226562 167.761719 C 359.796875 173.253906 360.796875 178.394531 365.957031 181.773438 C 370.160156 184.53125 370.628906 185.816406 369.542969 191.601562 C 368.859375 195.265625 366.589844 199.457031 364.503906 200.917969 C 361.488281 203.03125 360.929688 204.925781 361.773438 210.136719 C 363.335938 219.761719 358.839844 227.464844 351.65625 227.464844 C 347.609375 227.464844 345.492188 228.675781 344.070312 231.792969 C 342.984375 234.175781 339.417969 237.277344 336.144531 238.683594 C 332.867188 240.089844 329.765625 241.503906 329.25 241.828125 C 328.734375 242.148438 327.332031 241.789062 326.136719 241.027344 Z M 348.394531 240.242188 C 345.320312 237.164062 345.535156 234.039062 349.027344 231.136719 C 353.183594 227.683594 359.195312 233.527344 356.265625 238.175781 C 353.632812 242.351562 351.152344 243.003906 348.394531 240.242188 Z M 85.9375 215.855469 C 80.578125 210.492188 86.214844 203.199219 92.253906 207.6875 C 95.074219 209.785156 95.417969 211.070312 93.84375 213.640625 C 91.203125 217.953125 88.726562 218.648438 85.9375 215.855469 Z M 284.726562 216.84375 C 281.585938 215.574219 281.746094 209.691406 284.996094 206.992188 C 287.015625 205.316406 288.296875 205.511719 290.621094 207.835938 C 294.222656 211.441406 294.355469 212.855469 291.382812 215.832031 C 288.984375 218.234375 288.390625 218.320312 284.726562 216.84375 Z M 3.785156 211.65625 C 2.078125 207.210938 4.492188 202.71875 8.203125 203.433594 C 10.277344 203.832031 11.488281 205.777344 11.488281 208.703125 C 11.488281 214.050781 5.574219 216.320312 3.785156 211.65625 Z M 96.789062 210.777344 C 96.789062 206.597656 93.164062 203.078125 88.855469 203.078125 C 83.914062 203.078125 82.878906 198.515625 86.550781 192.910156 C 89.496094 188.414062 89.5 187.734375 86.648438 183.378906 C 84.960938 180.800781 82.332031 178.691406 80.808594 178.691406 C 79.105469 178.691406 78.042969 176.886719 78.042969 174 C 78.042969 171.421875 78.675781 169.410156 79.449219 169.53125 C 83.53125 170.179688 85.820312 168.871094 87.648438 164.859375 C 90.0625 159.550781 87.089844 152.425781 82.460938 152.425781 C 80.546875 152.425781 79.914062 151.390625 80.652344 149.460938 C 81.277344 147.828125 81.792969 146.140625 81.792969 145.707031 C 81.792969 145.277344 83.796875 144.921875 86.25 144.921875 C 92.273438 144.921875 95.519531 140.511719 94.515625 133.683594 C 93.628906 127.636719 98.976562 120.246094 101.398438 124.167969 C 102.078125 125.265625 104.765625 126.164062 107.371094 126.164062 C 110.917969 126.164062 112.648438 124.746094 114.234375 120.535156 C 116.222656 115.269531 116.988281 114.910156 126.175781 114.910156 C 134.207031 114.910156 138.933594 116.460938 152.113281 123.414062 C 164.652344 130.035156 167.789062 131.101562 166.253906 128.226562 C 165.164062 126.195312 164.277344 124.269531 164.277344 123.941406 C 164.277344 123.617188 175.246094 123.347656 188.648438 123.347656 C 211.25 123.34375 215.953125 124.128906 211.144531 127.101562 C 210.113281 127.742188 209.269531 128.96875 209.269531 129.828125 C 209.269531 130.691406 216.476562 127.6875 225.28125 123.152344 C 237.796875 116.710938 243.300781 114.910156 250.488281 114.910156 C 258.671875 114.910156 259.953125 115.476562 262.144531 120.066406 C 264.785156 125.597656 271.589844 127.800781 275.640625 124.4375 C 277.429688 122.953125 278.90625 123.355469 281.285156 125.984375 C 283.390625 128.316406 283.8125 129.96875 282.503906 130.777344 C 276.828125 134.289062 283.03125 144.921875 290.753906 144.921875 C 293.144531 144.921875 295.636719 146.3125 296.285156 148.007812 C 296.9375 149.703125 297.238281 151.179688 296.957031 151.289062 C 287.847656 154.851562 285.292969 163.445312 291.953125 168.113281 C 294.242188 169.71875 296.824219 170.59375 297.6875 170.058594 C 298.550781 169.527344 299.253906 171.15625 299.253906 173.6875 C 299.253906 177.019531 297.972656 178.605469 294.597656 179.453125 C 288.425781 181.003906 286.367188 188.773438 290.824219 193.703125 C 295.128906 198.460938 293.417969 202.277344 286.34375 203.691406 C 282.441406 204.472656 280.261719 206.21875 279.523438 209.15625 C 278.578125 212.933594 277.496094 213.386719 270.917969 212.757812 C 264.804688 212.175781 263.636719 211.464844 264.691406 208.964844 C 279.8125 173.066406 279.832031 144.4375 264.734375 134.539062 C 256.109375 128.882812 248.183594 129.132812 226.765625 135.738281 C 198.039062 144.59375 178.886719 144.613281 150.597656 135.8125 C 134.835938 130.910156 128.574219 129.785156 122.289062 130.726562 C 113.46875 132.050781 105.917969 138.417969 102.53125 147.390625 C 97.925781 159.59375 101.558594 186.695312 110.035156 203.316406 C 112.171875 207.511719 113.652344 211.167969 113.324219 211.441406 C 112.992188 211.714844 109.136719 212.398438 104.757812 212.957031 C 98.101562 213.808594 96.789062 213.449219 96.789062 210.777344 Z M 365.132812 211.835938 C 361.949219 207.996094 364.5625 202.765625 369.324219 203.445312 C 372.164062 203.851562 373.304688 205.355469 373.304688 208.679688 C 373.304688 214.03125 368.496094 215.890625 365.132812 211.835938 Z M 75.527344 190.984375 C 73.726562 186.285156 76.28125 182.191406 80.625 182.8125 C 83.46875 183.21875 84.601562 184.71875 84.601562 188.070312 C 84.601562 193.535156 77.394531 195.847656 75.527344 190.984375 Z M 176.394531 185.253906 C 174.519531 172.511719 176.140625 150.019531 179.003906 149.074219 C 180.828125 148.46875 181.195312 149.332031 180.304688 152.132812 C 178.578125 157.582031 182.324219 163.683594 187.402344 163.683594 C 193.140625 163.683594 196.148438 160.277344 196.148438 153.773438 C 196.148438 150.28125 196.980469 148.636719 198.492188 149.136719 C 201.34375 150.078125 202.507812 165.890625 200.875 181.503906 L 199.699219 192.757812 L 177.5 192.757812 Z M 195.507812 180.988281 C 196.164062 178.375 195.855469 174.886719 194.824219 173.242188 C 192.089844 168.871094 184.625 168.335938 181.722656 172.304688 C 178.355469 176.914062 178.652344 179.941406 182.886719 184.179688 C 187.5625 188.859375 193.9375 187.25 195.507812 180.988281 Z M 185.367188 183.066406 C 182.277344 181.832031 182.371094 175.941406 185.519531 173.324219 C 189.457031 170.054688 195.867188 175.523438 193.199219 179.875 C 190.941406 183.566406 188.796875 184.441406 185.367188 183.066406 Z M 292.488281 191.023438 C 290.78125 186.574219 293.195312 182.082031 296.90625 182.796875 C 298.980469 183.199219 300.191406 185.140625 300.191406 188.070312 C 300.191406 193.417969 294.273438 195.683594 292.488281 191.023438 Z M 3.429688 178.316406 C 0.398438 175.285156 0.597656 172.128906 3.992188 169.308594 C 6.234375 167.449219 7.371094 167.449219 9.613281 169.308594 C 13.296875 172.367188 13.210938 177.988281 9.460938 179.425781 C 5.6875 180.878906 6.058594 180.945312 3.429688 178.316406 Z M 366.183594 179.378906 C 363.921875 177.117188 364.75 169.757812 367.382812 168.746094 C 371.421875 167.195312 374.621094 170.3125 373.9375 175.132812 C 373.316406 179.5 368.785156 181.984375 366.183594 179.378906 Z M 76.296875 163.925781 C 74.757812 161.046875 74.988281 159.503906 77.304688 157.183594 C 81.113281 153.375 86 156.722656 85.160156 162.5625 C 84.417969 167.746094 78.804688 168.613281 76.296875 163.925781 Z M 291.886719 163.925781 C 290.347656 161.046875 290.578125 159.503906 292.894531 157.183594 C 296.703125 153.375 301.589844 156.722656 300.75 162.5625 C 300.007812 167.746094 294.390625 168.613281 291.886719 163.925781 Z M 185.296875 159.578125 C 182.222656 156.5 182.4375 153.371094 185.929688 150.472656 C 190.085938 147.019531 196.097656 152.863281 193.167969 157.507812 C 190.535156 161.6875 188.054688 162.339844 185.296875 159.578125 Z M 20.324219 150.199219 C 17.25 147.121094 17.464844 143.992188 20.957031 141.09375 C 25.113281 137.640625 31.125 143.484375 28.195312 148.128906 C 25.5625 152.308594 23.082031 152.960938 20.324219 150.199219 Z M 350.269531 150.199219 C 347.011719 146.9375 347.46875 141.777344 351.140625 140.367188 C 355.734375 138.601562 360.6875 144.09375 358.140625 148.128906 C 355.507812 152.308594 353.027344 152.960938 350.269531 150.199219 Z M 114.128906 143.601562 C 107.980469 142.414062 108.960938 139.5 116.589844 136.3125 C 123.960938 133.230469 132.054688 134.226562 154.902344 141.027344 L 167.089844 144.65625 L 142.71875 144.535156 C 129.3125 144.46875 116.449219 144.046875 114.128906 143.601562 Z M 224.265625 140.136719 C 242.953125 134 258.046875 133.3125 263.609375 138.34375 L 267.742188 142.078125 L 263.347656 143.3125 C 260.929688 143.992188 247.980469 144.597656 234.578125 144.652344 L 210.207031 144.753906 Z M 82.785156 139.386719 C 80.394531 135.519531 83.777344 129.667969 88.042969 130.277344 C 93.769531 131.09375 93.785156 139.992188 88.0625 140.808594 C 85.839844 141.128906 83.464844 140.488281 82.785156 139.386719 Z M 284.933594 138.359375 C 283.449219 134.484375 285.464844 129.917969 288.65625 129.917969 C 292.492188 129.917969 295.757812 134.578125 294.398438 138.121094 C 292.929688 141.953125 286.378906 142.117188 284.933594 138.359375 Z M 48.179688 133.75 C 46.894531 132.957031 46.128906 130.292969 46.476562 127.828125 C 47.394531 121.328125 54.414062 121.683594 55.179688 128.269531 C 55.78125 133.484375 52.238281 136.261719 48.179688 133.75 Z M 322.601562 132.859375 C 319.667969 130.675781 319.351562 129.460938 321.019531 126.742188 C 323.640625 122.460938 327.304688 122.402344 329.953125 126.597656 C 331.511719 129.074219 331.316406 130.527344 329.132812 132.714844 C 326.617188 135.230469 325.816406 135.246094 322.601562 132.859375 Z M 104.421875 122.496094 C 103.136719 121.703125 102.367188 119.035156 102.71875 116.574219 C 103.636719 110.070312 110.65625 110.429688 111.417969 117.015625 C 112.023438 122.226562 108.476562 125.003906 104.421875 122.496094 Z M 265.910156 122.0625 C 262.832031 118.984375 263.050781 115.855469 266.542969 112.957031 C 270.699219 109.503906 276.710938 115.34375 273.78125 119.992188 C 271.148438 124.167969 268.667969 124.820312 265.910156 122.0625 Z M 164.746094 119.292969 C 159.949219 117.359375 162.558594 113.171875 169.433594 111.78125 C 185.917969 108.449219 214.894531 110.964844 214.894531 115.730469 C 214.894531 117.121094 213.558594 118.773438 211.929688 119.398438 C 208.410156 120.75 168.128906 120.660156 164.746094 119.292969 Z M 163.386719 107.011719 C 165.652344 99.417969 169.929688 94.199219 176.421875 91.101562 C 180.417969 89.195312 183.1875 86.277344 183.917969 83.203125 C 184.554688 80.523438 185.53125 76.796875 186.089844 74.921875 C 187.035156 71.753906 186.582031 71.785156 179.515625 75.394531 C 175.339844 77.523438 171.046875 79.265625 169.976562 79.265625 C 168.863281 79.265625 168.027344 74.839844 168.027344 68.949219 C 168.027344 63.273438 168.429688 58.632812 168.917969 58.632812 C 169.410156 58.632812 172.574219 60.316406 175.949219 62.375 C 185.695312 68.324219 187 67.476562 183.890625 57.226562 C 179.957031 44.242188 180.171875 43.625 188.648438 43.625 C 192.773438 43.625 196.136719 43.835938 196.125 44.09375 C 196.113281 44.351562 194.878906 49.167969 193.382812 54.792969 C 191.886719 60.417969 190.96875 65.332031 191.347656 65.710938 C 191.726562 66.089844 195.492188 64.632812 199.714844 62.476562 L 207.394531 58.554688 L 207.394531 68.910156 C 207.394531 74.605469 206.941406 79.265625 206.382812 79.265625 C 205.828125 79.265625 201.984375 77.539062 197.84375 75.425781 L 190.320312 71.582031 L 191.554688 78.707031 C 192.234375 82.625 194.167969 86.675781 195.851562 87.707031 C 201.785156 91.347656 213.019531 103.246094 213.019531 105.894531 C 213.019531 108.0625 209.148438 108.554688 192.867188 108.460938 C 181.78125 108.398438 170.324219 109.011719 167.410156 109.824219 C 162.507812 111.191406 162.199219 110.976562 163.386719 107.011719 Z M 163.386719 107.011719 " fill-opacity="1" fill-rule="nonzero"/></g></svg>